<mxfile host="app.diagrams.net" agent="Mozilla/5.0 (Windows NT 10.0; Win64; x64) AppleWebKit/537.36 (KHTML, like Gecko) Chrome/134.0.0.0 Safari/537.36 OPR/119.0.0.0" version="27.2.0">
  <diagram name="Page-1" id="saacQLjqua3BrdoAb9Dc">
    <mxGraphModel dx="1033" dy="569" grid="1" gridSize="10" guides="1" tooltips="1" connect="1" arrows="1" fold="1" page="1" pageScale="1" pageWidth="850" pageHeight="1100" math="0" shadow="0">
      <root>
        <mxCell id="0" />
        <mxCell id="1" parent="0" />
        <mxCell id="60gWV8KQn87kFnj7rjoj-1" value="Car" style="swimlane;fontStyle=1;align=center;verticalAlign=top;childLayout=stackLayout;horizontal=1;startSize=26;horizontalStack=0;resizeParent=1;resizeParentMax=0;resizeLast=0;collapsible=1;marginBottom=0;whiteSpace=wrap;html=1;" parent="1" vertex="1">
          <mxGeometry x="360" y="410" width="160" height="52" as="geometry" />
        </mxCell>
        <mxCell id="60gWV8KQn87kFnj7rjoj-4" value="+ «pure virtual» info(): void" style="text;strokeColor=none;fillColor=none;align=left;verticalAlign=top;spacingLeft=4;spacingRight=4;overflow=hidden;rotatable=0;points=[[0,0.5],[1,0.5]];portConstraint=eastwest;whiteSpace=wrap;html=1;" parent="60gWV8KQn87kFnj7rjoj-1" vertex="1">
          <mxGeometry y="26" width="160" height="26" as="geometry" />
        </mxCell>
        <mxCell id="60gWV8KQn87kFnj7rjoj-5" value="Client" style="html=1;whiteSpace=wrap;fontStyle=1" parent="1" vertex="1">
          <mxGeometry x="560" y="620" width="110" height="50" as="geometry" />
        </mxCell>
        <mxCell id="60gWV8KQn87kFnj7rjoj-6" value="RedConventionalCar" style="swimlane;fontStyle=1;align=center;verticalAlign=top;childLayout=stackLayout;horizontal=1;startSize=26;horizontalStack=0;resizeParent=1;resizeParentMax=0;resizeLast=0;collapsible=1;marginBottom=0;whiteSpace=wrap;html=1;" parent="1" vertex="1">
          <mxGeometry x="60" y="498" width="160" height="52" as="geometry" />
        </mxCell>
        <mxCell id="60gWV8KQn87kFnj7rjoj-9" value="+ «override» info(): void" style="text;strokeColor=none;fillColor=none;align=left;verticalAlign=top;spacingLeft=4;spacingRight=4;overflow=hidden;rotatable=0;points=[[0,0.5],[1,0.5]];portConstraint=eastwest;whiteSpace=wrap;html=1;" parent="60gWV8KQn87kFnj7rjoj-6" vertex="1">
          <mxGeometry y="26" width="160" height="26" as="geometry" />
        </mxCell>
        <mxCell id="60gWV8KQn87kFnj7rjoj-10" value="BlueConventionalCar" style="swimlane;fontStyle=1;align=center;verticalAlign=top;childLayout=stackLayout;horizontal=1;startSize=26;horizontalStack=0;resizeParent=1;resizeParentMax=0;resizeLast=0;collapsible=1;marginBottom=0;whiteSpace=wrap;html=1;" parent="1" vertex="1">
          <mxGeometry x="260" y="540" width="160" height="52" as="geometry" />
        </mxCell>
        <mxCell id="60gWV8KQn87kFnj7rjoj-11" value="+ «override» info(): void" style="text;strokeColor=none;fillColor=none;align=left;verticalAlign=top;spacingLeft=4;spacingRight=4;overflow=hidden;rotatable=0;points=[[0,0.5],[1,0.5]];portConstraint=eastwest;whiteSpace=wrap;html=1;" parent="60gWV8KQn87kFnj7rjoj-10" vertex="1">
          <mxGeometry y="26" width="160" height="26" as="geometry" />
        </mxCell>
        <mxCell id="60gWV8KQn87kFnj7rjoj-12" value="RedElectricCar" style="swimlane;fontStyle=1;align=center;verticalAlign=top;childLayout=stackLayout;horizontal=1;startSize=26;horizontalStack=0;resizeParent=1;resizeParentMax=0;resizeLast=0;collapsible=1;marginBottom=0;whiteSpace=wrap;html=1;" parent="1" vertex="1">
          <mxGeometry x="480" y="510" width="160" height="52" as="geometry" />
        </mxCell>
        <mxCell id="60gWV8KQn87kFnj7rjoj-13" value="+ «override» info(): void" style="text;strokeColor=none;fillColor=none;align=left;verticalAlign=top;spacingLeft=4;spacingRight=4;overflow=hidden;rotatable=0;points=[[0,0.5],[1,0.5]];portConstraint=eastwest;whiteSpace=wrap;html=1;" parent="60gWV8KQn87kFnj7rjoj-12" vertex="1">
          <mxGeometry y="26" width="160" height="26" as="geometry" />
        </mxCell>
        <mxCell id="60gWV8KQn87kFnj7rjoj-14" value="BlueElectricCar" style="swimlane;fontStyle=1;align=center;verticalAlign=top;childLayout=stackLayout;horizontal=1;startSize=26;horizontalStack=0;resizeParent=1;resizeParentMax=0;resizeLast=0;collapsible=1;marginBottom=0;whiteSpace=wrap;html=1;" parent="1" vertex="1">
          <mxGeometry x="570" y="310" width="160" height="52" as="geometry" />
        </mxCell>
        <mxCell id="60gWV8KQn87kFnj7rjoj-15" value="+ «override» info(): void" style="text;strokeColor=none;fillColor=none;align=left;verticalAlign=top;spacingLeft=4;spacingRight=4;overflow=hidden;rotatable=0;points=[[0,0.5],[1,0.5]];portConstraint=eastwest;whiteSpace=wrap;html=1;" parent="60gWV8KQn87kFnj7rjoj-14" vertex="1">
          <mxGeometry y="26" width="160" height="26" as="geometry" />
        </mxCell>
        <mxCell id="60gWV8KQn87kFnj7rjoj-16" value="" style="endArrow=block;dashed=1;endFill=0;endSize=12;html=1;rounded=0;exitX=0.5;exitY=0;exitDx=0;exitDy=0;entryX=0;entryY=0.5;entryDx=0;entryDy=0;" parent="1" source="60gWV8KQn87kFnj7rjoj-6" target="60gWV8KQn87kFnj7rjoj-4" edge="1">
          <mxGeometry width="160" relative="1" as="geometry">
            <mxPoint x="290" y="470" as="sourcePoint" />
            <mxPoint x="450" y="470" as="targetPoint" />
            <Array as="points">
              <mxPoint x="140" y="449" />
            </Array>
          </mxGeometry>
        </mxCell>
        <mxCell id="60gWV8KQn87kFnj7rjoj-17" value="" style="endArrow=block;dashed=1;endFill=0;endSize=12;html=1;rounded=0;exitX=0.5;exitY=0;exitDx=0;exitDy=0;" parent="1" source="60gWV8KQn87kFnj7rjoj-10" target="60gWV8KQn87kFnj7rjoj-4" edge="1">
          <mxGeometry width="160" relative="1" as="geometry">
            <mxPoint x="280" y="480" as="sourcePoint" />
            <mxPoint x="440" y="480" as="targetPoint" />
            <Array as="points">
              <mxPoint x="340" y="500" />
              <mxPoint x="440" y="500" />
            </Array>
          </mxGeometry>
        </mxCell>
        <mxCell id="60gWV8KQn87kFnj7rjoj-18" value="" style="endArrow=block;dashed=1;endFill=0;endSize=12;html=1;rounded=0;exitX=0.5;exitY=0;exitDx=0;exitDy=0;entryX=1;entryY=0.5;entryDx=0;entryDy=0;" parent="1" source="60gWV8KQn87kFnj7rjoj-12" target="60gWV8KQn87kFnj7rjoj-4" edge="1">
          <mxGeometry width="160" relative="1" as="geometry">
            <mxPoint x="290" y="470" as="sourcePoint" />
            <mxPoint x="450" y="470" as="targetPoint" />
            <Array as="points">
              <mxPoint x="560" y="449" />
            </Array>
          </mxGeometry>
        </mxCell>
        <mxCell id="60gWV8KQn87kFnj7rjoj-19" value="" style="endArrow=block;dashed=1;endFill=0;endSize=12;html=1;rounded=0;exitX=0;exitY=0.5;exitDx=0;exitDy=0;entryX=0.5;entryY=0;entryDx=0;entryDy=0;" parent="1" source="60gWV8KQn87kFnj7rjoj-15" target="60gWV8KQn87kFnj7rjoj-1" edge="1">
          <mxGeometry width="160" relative="1" as="geometry">
            <mxPoint x="290" y="470" as="sourcePoint" />
            <mxPoint x="450" y="470" as="targetPoint" />
            <Array as="points">
              <mxPoint x="440" y="350" />
              <mxPoint x="440" y="397" />
            </Array>
          </mxGeometry>
        </mxCell>
        <mxCell id="60gWV8KQn87kFnj7rjoj-20" value="" style="endArrow=none;html=1;edgeStyle=orthogonalEdgeStyle;rounded=0;exitX=0;exitY=0.75;exitDx=0;exitDy=0;entryX=0.403;entryY=1;entryDx=0;entryDy=0;entryPerimeter=0;" parent="1" source="60gWV8KQn87kFnj7rjoj-5" target="60gWV8KQn87kFnj7rjoj-9" edge="1">
          <mxGeometry relative="1" as="geometry">
            <mxPoint x="260" y="690" as="sourcePoint" />
            <mxPoint x="420" y="690" as="targetPoint" />
          </mxGeometry>
        </mxCell>
        <mxCell id="60gWV8KQn87kFnj7rjoj-21" value="0" style="edgeLabel;resizable=0;html=1;align=left;verticalAlign=bottom;" parent="60gWV8KQn87kFnj7rjoj-20" connectable="0" vertex="1">
          <mxGeometry x="-1" relative="1" as="geometry">
            <mxPoint x="-20" y="25" as="offset" />
          </mxGeometry>
        </mxCell>
        <mxCell id="60gWV8KQn87kFnj7rjoj-22" value="*" style="edgeLabel;resizable=0;html=1;align=right;verticalAlign=bottom;" parent="60gWV8KQn87kFnj7rjoj-20" connectable="0" vertex="1">
          <mxGeometry x="1" relative="1" as="geometry">
            <mxPoint x="-4" y="19" as="offset" />
          </mxGeometry>
        </mxCell>
        <mxCell id="60gWV8KQn87kFnj7rjoj-23" value="" style="endArrow=none;html=1;edgeStyle=orthogonalEdgeStyle;rounded=0;entryX=0.385;entryY=0.995;entryDx=0;entryDy=0;entryPerimeter=0;exitX=0;exitY=0.5;exitDx=0;exitDy=0;" parent="1" source="60gWV8KQn87kFnj7rjoj-5" target="60gWV8KQn87kFnj7rjoj-11" edge="1">
          <mxGeometry relative="1" as="geometry">
            <mxPoint x="270" y="700" as="sourcePoint" />
            <mxPoint x="430" y="700" as="targetPoint" />
          </mxGeometry>
        </mxCell>
        <mxCell id="60gWV8KQn87kFnj7rjoj-24" value="0" style="edgeLabel;resizable=0;html=1;align=left;verticalAlign=bottom;" parent="60gWV8KQn87kFnj7rjoj-23" connectable="0" vertex="1">
          <mxGeometry x="-1" relative="1" as="geometry">
            <mxPoint x="-20" as="offset" />
          </mxGeometry>
        </mxCell>
        <mxCell id="60gWV8KQn87kFnj7rjoj-25" value="*" style="edgeLabel;resizable=0;html=1;align=right;verticalAlign=bottom;" parent="60gWV8KQn87kFnj7rjoj-23" connectable="0" vertex="1">
          <mxGeometry x="1" relative="1" as="geometry">
            <mxPoint x="8" y="17" as="offset" />
          </mxGeometry>
        </mxCell>
        <mxCell id="60gWV8KQn87kFnj7rjoj-29" value="" style="endArrow=none;html=1;edgeStyle=orthogonalEdgeStyle;rounded=0;exitX=0.5;exitY=0;exitDx=0;exitDy=0;entryX=0.843;entryY=1.015;entryDx=0;entryDy=0;entryPerimeter=0;" parent="1" source="60gWV8KQn87kFnj7rjoj-5" target="60gWV8KQn87kFnj7rjoj-13" edge="1">
          <mxGeometry relative="1" as="geometry">
            <mxPoint x="460" y="650" as="sourcePoint" />
            <mxPoint x="620" y="650" as="targetPoint" />
          </mxGeometry>
        </mxCell>
        <mxCell id="60gWV8KQn87kFnj7rjoj-30" value="0" style="edgeLabel;resizable=0;html=1;align=left;verticalAlign=bottom;" parent="60gWV8KQn87kFnj7rjoj-29" connectable="0" vertex="1">
          <mxGeometry x="-1" relative="1" as="geometry" />
        </mxCell>
        <mxCell id="60gWV8KQn87kFnj7rjoj-31" value="*" style="edgeLabel;resizable=0;html=1;align=right;verticalAlign=bottom;" parent="60gWV8KQn87kFnj7rjoj-29" connectable="0" vertex="1">
          <mxGeometry x="1" relative="1" as="geometry">
            <mxPoint x="7" y="18" as="offset" />
          </mxGeometry>
        </mxCell>
        <mxCell id="60gWV8KQn87kFnj7rjoj-32" value="" style="endArrow=none;html=1;edgeStyle=orthogonalEdgeStyle;rounded=0;exitX=1;exitY=0.5;exitDx=0;exitDy=0;entryX=1;entryY=0.5;entryDx=0;entryDy=0;" parent="1" source="60gWV8KQn87kFnj7rjoj-5" target="60gWV8KQn87kFnj7rjoj-15" edge="1">
          <mxGeometry relative="1" as="geometry">
            <mxPoint x="650" y="560" as="sourcePoint" />
            <mxPoint x="810" y="560" as="targetPoint" />
          </mxGeometry>
        </mxCell>
        <mxCell id="60gWV8KQn87kFnj7rjoj-33" value="0" style="edgeLabel;resizable=0;html=1;align=left;verticalAlign=bottom;" parent="60gWV8KQn87kFnj7rjoj-32" connectable="0" vertex="1">
          <mxGeometry x="-1" relative="1" as="geometry" />
        </mxCell>
        <mxCell id="60gWV8KQn87kFnj7rjoj-34" value="*" style="edgeLabel;resizable=0;html=1;align=right;verticalAlign=bottom;" parent="60gWV8KQn87kFnj7rjoj-32" connectable="0" vertex="1">
          <mxGeometry x="1" relative="1" as="geometry">
            <mxPoint x="10" y="21" as="offset" />
          </mxGeometry>
        </mxCell>
      </root>
    </mxGraphModel>
  </diagram>
</mxfile>
